<svg width="701" height="701" viewBox="0 0 701 701" fill="none" xmlns="http://www.w3.org/2000/svg">
<rect width="701" height="701" fill="white"/>
<path d="M132.534 588.124L151.296 533.758H166.633L185.395 588.124H172.812L169.09 577.032H148.764L145.042 588.124H132.534ZM151.966 567.181H165.888L157.401 541.493H160.528L151.966 567.181Z" fill="#373737"/>
<path d="M191.159 588.124V533.758H214.611C218.433 533.758 221.709 534.391 224.439 535.655C227.169 536.92 229.254 538.745 230.693 541.128C232.132 543.464 232.852 546.31 232.852 549.667C232.852 552.05 232.182 554.337 230.842 556.526C229.502 558.667 227.293 560.467 224.216 561.926V556.38C227.144 557.499 229.403 558.837 230.991 560.394C232.579 561.951 233.671 563.653 234.267 565.502C234.862 567.302 235.16 569.2 235.16 571.194C235.16 576.546 233.349 580.705 229.725 583.673C226.102 586.641 221.064 588.124 214.611 588.124H191.159ZM202.699 578.273H215.952C218.284 578.273 220.146 577.616 221.535 576.302C222.925 574.989 223.62 573.286 223.62 571.194C223.62 569.054 222.925 567.326 221.535 566.013C220.146 564.699 218.284 564.043 215.952 564.043H202.699V578.273ZM202.699 554.191H215.43C217.217 554.191 218.632 553.704 219.674 552.732C220.766 551.71 221.312 550.372 221.312 548.718C221.312 547.064 220.766 545.75 219.674 544.777C218.632 543.756 217.217 543.245 215.43 543.245H202.699V554.191Z" fill="#373737"/>
<path d="M262.739 589C259.265 589 255.989 588.392 252.912 587.176C249.884 585.911 247.253 584.135 245.02 581.848C242.836 579.562 241.198 576.862 240.106 573.748L249.561 569.589C250.951 572.556 252.862 574.892 255.294 576.594C257.776 578.297 260.506 579.148 263.484 579.148C265.072 579.148 266.437 578.905 267.579 578.419C268.72 577.932 269.614 577.275 270.259 576.448C270.904 575.573 271.227 574.551 271.227 573.383C271.227 572.118 270.83 571.048 270.036 570.172C269.242 569.248 268.001 568.518 266.313 567.983L255.443 564.48C251.026 563.07 247.7 561.075 245.467 558.497C243.233 555.869 242.116 552.732 242.116 549.083C242.116 545.872 242.91 543.05 244.499 540.618C246.137 538.185 248.395 536.288 251.274 534.926C254.202 533.563 257.553 532.882 261.325 532.882C264.65 532.882 267.728 533.442 270.557 534.561C273.386 535.68 275.818 537.261 277.853 539.304C279.938 541.347 281.501 543.804 282.544 546.675L273.163 550.834C272.12 548.304 270.557 546.334 268.472 544.923C266.388 543.464 264.005 542.734 261.325 542.734C259.786 542.734 258.421 542.977 257.23 543.464C256.039 543.95 255.121 544.656 254.475 545.58C253.83 546.456 253.507 547.477 253.507 548.645C253.507 549.91 253.929 551.029 254.773 552.002C255.617 552.926 256.883 553.656 258.57 554.191L269.217 557.548C273.684 558.959 277.009 560.929 279.193 563.459C281.427 565.989 282.544 569.078 282.544 572.727C282.544 575.889 281.7 578.711 280.012 581.192C278.325 583.624 275.992 585.546 273.014 586.957C270.085 588.319 266.661 589 262.739 589Z" fill="#4EB477"/>
<path d="M318.539 589C314.369 589 310.498 588.295 306.924 586.884C303.35 585.473 300.223 583.503 297.543 580.973C294.912 578.394 292.853 575.402 291.363 571.997C289.874 568.591 289.13 564.894 289.13 560.905C289.13 556.915 289.85 553.218 291.289 549.813C292.778 546.407 294.838 543.439 297.469 540.91C300.149 538.38 303.276 536.409 306.85 534.999C310.423 533.588 314.32 532.882 318.539 532.882C322.758 532.882 326.654 533.588 330.228 534.999C333.801 536.409 336.903 538.38 339.534 540.91C342.214 543.439 344.274 546.407 345.714 549.813C347.203 553.218 347.947 556.915 347.947 560.905C347.947 564.894 347.203 568.591 345.714 571.997C344.225 575.402 342.14 578.394 339.46 580.973C336.829 583.503 333.727 585.473 330.153 586.884C326.579 588.295 322.708 589 318.539 589ZM318.539 578.784C321.07 578.784 323.403 578.346 325.537 577.47C327.721 576.594 329.632 575.378 331.27 573.821C332.908 572.216 334.173 570.318 335.067 568.129C335.96 565.94 336.407 563.532 336.407 560.905C336.407 558.278 335.96 555.894 335.067 553.753C334.173 551.564 332.908 549.667 331.27 548.061C329.632 546.456 327.721 545.239 325.537 544.412C323.403 543.537 321.07 543.099 318.539 543.099C316.007 543.099 313.65 543.537 311.466 544.412C309.331 545.239 307.445 546.456 305.807 548.061C304.169 549.667 302.904 551.564 302.01 553.753C301.117 555.894 300.67 558.278 300.67 560.905C300.67 563.532 301.117 565.94 302.01 568.129C302.904 570.318 304.169 572.216 305.807 573.821C307.445 575.378 309.331 576.594 311.466 577.47C313.65 578.346 316.007 578.784 318.539 578.784Z" fill="#4EB477"/>
<path d="M356.132 588.124V533.758H367.672V578.273H391.124V588.124H356.132Z" fill="#4EB477"/>
<path d="M417.431 589C413.064 589 409.167 588.1 405.742 586.3C402.318 584.5 399.613 582.043 397.627 578.929C395.691 575.767 394.724 572.191 394.724 568.202V533.758H406.264V567.472C406.264 569.613 406.735 571.559 407.678 573.31C408.671 575.013 410.011 576.351 411.699 577.324C413.386 578.297 415.297 578.784 417.431 578.784C419.615 578.784 421.526 578.297 423.164 577.324C424.852 576.351 426.167 575.013 427.11 573.31C428.103 571.559 428.599 569.613 428.599 567.472V533.758H440.139V568.202C440.139 572.191 439.147 575.767 437.161 578.929C435.226 582.043 432.545 584.5 429.12 586.3C425.696 588.1 421.799 589 417.431 589Z" fill="#4EB477"/>
<path d="M459.246 588.124V543.61H445.175V533.758H484.634V543.61H470.786V588.124H459.246Z" fill="#4EB477"/>
<path d="M490.349 588.124V533.758H501.889V588.124H490.349Z" fill="#4EB477"/>
<path d="M539.496 589C535.327 589 531.455 588.295 527.881 586.884C524.308 585.473 521.181 583.503 518.5 580.973C515.87 578.394 513.81 575.402 512.321 571.997C510.832 568.591 510.087 564.894 510.087 560.905C510.087 556.915 510.807 553.218 512.246 549.813C513.735 546.407 515.795 543.439 518.426 540.91C521.106 538.38 524.233 536.409 527.807 534.999C531.381 533.588 535.277 532.882 539.496 532.882C543.715 532.882 547.611 533.588 551.185 534.999C554.759 536.409 557.861 538.38 560.491 540.91C563.172 543.439 565.232 546.407 566.671 549.813C568.16 553.218 568.904 556.915 568.904 560.905C568.904 564.894 568.16 568.591 566.671 571.997C565.182 575.402 563.097 578.394 560.417 580.973C557.786 583.503 554.684 585.473 551.11 586.884C547.537 588.295 543.665 589 539.496 589ZM539.496 578.784C542.027 578.784 544.36 578.346 546.494 577.47C548.678 576.594 550.589 575.378 552.227 573.821C553.865 572.216 555.131 570.318 556.024 568.129C556.918 565.94 557.364 563.532 557.364 560.905C557.364 558.278 556.918 555.894 556.024 553.753C555.131 551.564 553.865 549.667 552.227 548.061C550.589 546.456 548.678 545.239 546.494 544.412C544.36 543.537 542.027 543.099 539.496 543.099C536.964 543.099 534.607 543.537 532.423 544.412C530.289 545.239 528.403 546.456 526.765 548.061C525.127 549.667 523.861 551.564 522.967 553.753C522.074 555.894 521.627 558.278 521.627 560.905C521.627 563.532 522.074 565.94 522.967 568.129C523.861 570.318 525.127 572.216 526.765 573.821C528.403 575.378 530.289 576.594 532.423 577.47C534.607 578.346 536.964 578.784 539.496 578.784Z" fill="#4EB477"/>
<path d="M345.796 342.189C345.796 419.747 282.938 482.619 205.398 482.619C127.858 482.619 65 419.747 65 342.189C65 264.632 127.858 201.759 205.398 201.759C282.938 201.759 345.796 264.632 345.796 342.189Z" fill="#D7C374"/>
<path d="M345.796 342.189C345.796 419.747 282.938 482.619 205.398 482.619C127.858 482.619 65 419.747 65 342.189C65 264.632 127.858 201.759 205.398 201.759C282.938 201.759 345.796 264.632 345.796 342.189Z" fill="url(#paint0_radial_1106_227)" fill-opacity="0.8"/>
<path d="M345.796 342.189C345.796 419.747 282.938 482.619 205.398 482.619C127.858 482.619 65 419.747 65 342.189C65 264.632 127.858 201.759 205.398 201.759C282.938 201.759 345.796 264.632 345.796 342.189Z" fill="url(#paint1_radial_1106_227)" fill-opacity="0.8"/>
<path d="M345.796 342.189C345.796 419.747 282.938 482.619 205.398 482.619C127.858 482.619 65 419.747 65 342.189C65 264.632 127.858 201.759 205.398 201.759C282.938 201.759 345.796 264.632 345.796 342.189Z" fill="url(#paint2_linear_1106_227)" fill-opacity="0.3"/>
<path d="M345.796 342.189C345.796 419.747 282.938 482.619 205.398 482.619C127.858 482.619 65 419.747 65 342.189C65 264.632 127.858 201.759 205.398 201.759C282.938 201.759 345.796 264.632 345.796 342.189Z" fill="black" fill-opacity="0.1"/>
<path d="M511.523 252.43C511.523 329.987 448.665 392.86 371.125 392.86C293.586 392.86 230.728 329.987 230.728 252.43C230.728 174.873 293.586 112 371.125 112C448.665 112 511.523 174.873 511.523 252.43Z" fill="#D7C374"/>
<path d="M511.523 252.43C511.523 329.987 448.665 392.86 371.125 392.86C293.586 392.86 230.728 329.987 230.728 252.43C230.728 174.873 293.586 112 371.125 112C448.665 112 511.523 174.873 511.523 252.43Z" fill="url(#paint3_radial_1106_227)" fill-opacity="0.8"/>
<path d="M511.523 252.43C511.523 329.987 448.665 392.86 371.125 392.86C293.586 392.86 230.728 329.987 230.728 252.43C230.728 174.873 293.586 112 371.125 112C448.665 112 511.523 174.873 511.523 252.43Z" fill="url(#paint4_radial_1106_227)" fill-opacity="0.8"/>
<path d="M511.523 252.43C511.523 329.987 448.665 392.86 371.125 392.86C293.586 392.86 230.728 329.987 230.728 252.43C230.728 174.873 293.586 112 371.125 112C448.665 112 511.523 174.873 511.523 252.43Z" fill="url(#paint5_linear_1106_227)" fill-opacity="0.3"/>
<path d="M511.523 252.43C511.523 329.987 448.665 392.86 371.125 392.86C293.586 392.86 230.728 329.987 230.728 252.43C230.728 174.873 293.586 112 371.125 112C448.665 112 511.523 174.873 511.523 252.43Z" fill="black" fill-opacity="0.03"/>
<path d="M495.602 376.211C495.602 453.768 432.744 516.641 355.204 516.641C277.664 516.641 214.806 453.768 214.806 376.211C214.806 298.653 277.664 235.78 355.204 235.78C432.744 235.78 495.602 298.653 495.602 376.211Z" fill="#D7C374"/>
<path d="M495.602 376.211C495.602 453.768 432.744 516.641 355.204 516.641C277.664 516.641 214.806 453.768 214.806 376.211C214.806 298.653 277.664 235.78 355.204 235.78C432.744 235.78 495.602 298.653 495.602 376.211Z" fill="url(#paint6_radial_1106_227)" fill-opacity="0.8"/>
<path d="M495.602 376.211C495.602 453.768 432.744 516.641 355.204 516.641C277.664 516.641 214.806 453.768 214.806 376.211C214.806 298.653 277.664 235.78 355.204 235.78C432.744 235.78 495.602 298.653 495.602 376.211Z" fill="url(#paint7_radial_1106_227)" fill-opacity="0.8"/>
<path d="M495.602 376.211C495.602 453.768 432.744 516.641 355.204 516.641C277.664 516.641 214.806 453.768 214.806 376.211C214.806 298.653 277.664 235.78 355.204 235.78C432.744 235.78 495.602 298.653 495.602 376.211Z" fill="url(#paint8_linear_1106_227)" fill-opacity="0.3"/>
<path d="M495.602 376.211C495.602 453.768 432.744 516.641 355.204 516.641C277.664 516.641 214.806 453.768 214.806 376.211C214.806 298.653 277.664 235.78 355.204 235.78C432.744 235.78 495.602 298.653 495.602 376.211Z" fill="#E2E2E2" fill-opacity="0.1"/>
<path d="M636 342.094C636 419.651 573.142 482.524 495.602 482.524C418.062 482.524 355.204 419.651 355.204 342.094C355.204 264.536 418.062 201.664 495.602 201.664C573.142 201.664 636 264.536 636 342.094Z" fill="#D7C374"/>
<path d="M636 342.094C636 419.651 573.142 482.524 495.602 482.524C418.062 482.524 355.204 419.651 355.204 342.094C355.204 264.536 418.062 201.664 495.602 201.664C573.142 201.664 636 264.536 636 342.094Z" fill="url(#paint9_radial_1106_227)" fill-opacity="0.8"/>
<path d="M636 342.094C636 419.651 573.142 482.524 495.602 482.524C418.062 482.524 355.204 419.651 355.204 342.094C355.204 264.536 418.062 201.664 495.602 201.664C573.142 201.664 636 264.536 636 342.094Z" fill="url(#paint10_radial_1106_227)" fill-opacity="0.8"/>
<path d="M636 342.094C636 419.651 573.142 482.524 495.602 482.524C418.062 482.524 355.204 419.651 355.204 342.094C355.204 264.536 418.062 201.664 495.602 201.664C573.142 201.664 636 264.536 636 342.094Z" fill="url(#paint11_linear_1106_227)" fill-opacity="0.3"/>
<path d="M636 342.094C636 419.651 573.142 482.524 495.602 482.524C418.062 482.524 355.204 419.651 355.204 342.094C355.204 264.536 418.062 201.664 495.602 201.664C573.142 201.664 636 264.536 636 342.094Z" fill="white" fill-opacity="0.2"/>
<defs>
<radialGradient id="paint0_radial_1106_227" cx="0" cy="0" r="1" gradientUnits="userSpaceOnUse" gradientTransform="translate(126.819 243.461) rotate(4.61394) scale(426.324 601.871)">
<stop stop-color="white" stop-opacity="0"/>
<stop offset="0.521304" stop-color="#EEFF00"/>
<stop offset="1" stop-color="#EEFF00"/>
</radialGradient>
<radialGradient id="paint1_radial_1106_227" cx="0" cy="0" r="1" gradientUnits="userSpaceOnUse" gradientTransform="translate(207.34 383.755) rotate(-14.3259) scale(352.794 498.052)">
<stop stop-color="white" stop-opacity="0"/>
<stop offset="1" stop-color="#00C8FF"/>
</radialGradient>
<linearGradient id="paint2_linear_1106_227" x1="54.6102" y1="444.029" x2="687.41" y2="112.119" gradientUnits="userSpaceOnUse">
<stop stop-color="white" stop-opacity="0"/>
<stop offset="1" stop-color="#E5B700"/>
</linearGradient>
<radialGradient id="paint3_radial_1106_227" cx="0" cy="0" r="1" gradientUnits="userSpaceOnUse" gradientTransform="translate(126.819 266.969) rotate(5.43446) scale(426.861 708.607)">
<stop stop-color="white" stop-opacity="0"/>
<stop offset="0.521304" stop-color="#EEFF00"/>
<stop offset="1" stop-color="#EEFF00"/>
</radialGradient>
<radialGradient id="paint4_radial_1106_227" cx="0" cy="0" r="1" gradientUnits="userSpaceOnUse" gradientTransform="translate(207.34 432.351) rotate(-16.7542) scale(356.977 580.236)">
<stop stop-color="white" stop-opacity="0"/>
<stop offset="1" stop-color="#00C8FF"/>
</radialGradient>
<linearGradient id="paint5_linear_1106_227" x1="54.6102" y1="503.404" x2="728.156" y2="203.714" gradientUnits="userSpaceOnUse">
<stop stop-color="white" stop-opacity="0"/>
<stop offset="1" stop-color="#E5B700"/>
</linearGradient>
<radialGradient id="paint6_radial_1106_227" cx="0" cy="0" r="1" gradientUnits="userSpaceOnUse" gradientTransform="translate(126.819 266.969) rotate(5.43446) scale(426.861 708.607)">
<stop stop-color="white" stop-opacity="0"/>
<stop offset="0.521304" stop-color="#EEFF00"/>
<stop offset="1" stop-color="#EEFF00"/>
</radialGradient>
<radialGradient id="paint7_radial_1106_227" cx="0" cy="0" r="1" gradientUnits="userSpaceOnUse" gradientTransform="translate(207.34 432.351) rotate(-16.7542) scale(356.977 580.236)">
<stop stop-color="white" stop-opacity="0"/>
<stop offset="1" stop-color="#00C8FF"/>
</radialGradient>
<linearGradient id="paint8_linear_1106_227" x1="54.6102" y1="503.404" x2="728.156" y2="203.714" gradientUnits="userSpaceOnUse">
<stop stop-color="white" stop-opacity="0"/>
<stop offset="1" stop-color="#E5B700"/>
</linearGradient>
<radialGradient id="paint9_radial_1106_227" cx="0" cy="0" r="1" gradientUnits="userSpaceOnUse" gradientTransform="translate(126.819 266.969) rotate(5.43446) scale(426.861 708.607)">
<stop stop-color="white" stop-opacity="0"/>
<stop offset="0.521304" stop-color="#EEFF00"/>
<stop offset="1" stop-color="#EEFF00"/>
</radialGradient>
<radialGradient id="paint10_radial_1106_227" cx="0" cy="0" r="1" gradientUnits="userSpaceOnUse" gradientTransform="translate(207.34 432.351) rotate(-16.7542) scale(356.977 580.236)">
<stop stop-color="white" stop-opacity="0"/>
<stop offset="1" stop-color="#00C8FF"/>
</radialGradient>
<linearGradient id="paint11_linear_1106_227" x1="54.6102" y1="503.404" x2="728.156" y2="203.714" gradientUnits="userSpaceOnUse">
<stop stop-color="white" stop-opacity="0"/>
<stop offset="1" stop-color="#E5B700"/>
</linearGradient>
</defs>
</svg>
