<svg width="256" height="256" viewBox="0 0 256 256" fill="none" xmlns="http://www.w3.org/2000/svg">
<rect width="256" height="256" fill="white"/>
<path d="M126.256 138.314C126.256 167.017 102.956 190.285 74.2131 190.285C45.4704 190.285 22.1699 167.017 22.1699 138.314C22.1699 109.611 45.4704 86.3426 74.2131 86.3426C102.956 86.3426 126.256 109.611 126.256 138.314Z" fill="#D7C374"/>
<path d="M126.256 138.314C126.256 167.017 102.956 190.285 74.2131 190.285C45.4704 190.285 22.1699 167.017 22.1699 138.314C22.1699 109.611 45.4704 86.3426 74.2131 86.3426C102.956 86.3426 126.256 109.611 126.256 138.314Z" fill="url(#paint0_radial_1086_238)" fill-opacity="0.8"/>
<path d="M126.256 138.314C126.256 167.017 102.956 190.285 74.2131 190.285C45.4704 190.285 22.1699 167.017 22.1699 138.314C22.1699 109.611 45.4704 86.3426 74.2131 86.3426C102.956 86.3426 126.256 109.611 126.256 138.314Z" fill="url(#paint1_radial_1086_238)" fill-opacity="0.8"/>
<path d="M126.256 138.314C126.256 167.017 102.956 190.285 74.2131 190.285C45.4704 190.285 22.1699 167.017 22.1699 138.314C22.1699 109.611 45.4704 86.3426 74.2131 86.3426C102.956 86.3426 126.256 109.611 126.256 138.314Z" fill="url(#paint2_linear_1086_238)" fill-opacity="0.3"/>
<path d="M126.256 138.314C126.256 167.017 102.956 190.285 74.2131 190.285C45.4704 190.285 22.1699 167.017 22.1699 138.314C22.1699 109.611 45.4704 86.3426 74.2131 86.3426C102.956 86.3426 126.256 109.611 126.256 138.314Z" fill="black" fill-opacity="0.1"/>
<path d="M187.689 105.095C187.689 133.798 164.388 157.066 135.646 157.066C106.903 157.066 83.6023 133.798 83.6023 105.095C83.6023 76.3923 106.903 53.124 135.646 53.124C164.388 53.124 187.689 76.3923 187.689 105.095Z" fill="#D7C374"/>
<path d="M187.689 105.095C187.689 133.798 164.388 157.066 135.646 157.066C106.903 157.066 83.6023 133.798 83.6023 105.095C83.6023 76.3923 106.903 53.124 135.646 53.124C164.388 53.124 187.689 76.3923 187.689 105.095Z" fill="url(#paint3_radial_1086_238)" fill-opacity="0.8"/>
<path d="M187.689 105.095C187.689 133.798 164.388 157.066 135.646 157.066C106.903 157.066 83.6023 133.798 83.6023 105.095C83.6023 76.3923 106.903 53.124 135.646 53.124C164.388 53.124 187.689 76.3923 187.689 105.095Z" fill="url(#paint4_radial_1086_238)" fill-opacity="0.8"/>
<path d="M187.689 105.095C187.689 133.798 164.388 157.066 135.646 157.066C106.903 157.066 83.6023 133.798 83.6023 105.095C83.6023 76.3923 106.903 53.124 135.646 53.124C164.388 53.124 187.689 76.3923 187.689 105.095Z" fill="url(#paint5_linear_1086_238)" fill-opacity="0.3"/>
<path d="M187.689 105.095C187.689 133.798 164.388 157.066 135.646 157.066C106.903 157.066 83.6023 133.798 83.6023 105.095C83.6023 76.3923 106.903 53.124 135.646 53.124C164.388 53.124 187.689 76.3923 187.689 105.095Z" fill="black" fill-opacity="0.03"/>
<path d="M181.787 150.905C181.787 179.607 158.486 202.876 129.744 202.876C101.001 202.876 77.7005 179.607 77.7005 150.905C77.7005 122.202 101.001 98.9334 129.744 98.9334C158.486 98.9334 181.787 122.202 181.787 150.905Z" fill="#D7C374"/>
<path d="M181.787 150.905C181.787 179.607 158.486 202.876 129.744 202.876C101.001 202.876 77.7005 179.607 77.7005 150.905C77.7005 122.202 101.001 98.9334 129.744 98.9334C158.486 98.9334 181.787 122.202 181.787 150.905Z" fill="url(#paint6_radial_1086_238)" fill-opacity="0.8"/>
<path d="M181.787 150.905C181.787 179.607 158.486 202.876 129.744 202.876C101.001 202.876 77.7005 179.607 77.7005 150.905C77.7005 122.202 101.001 98.9334 129.744 98.9334C158.486 98.9334 181.787 122.202 181.787 150.905Z" fill="url(#paint7_radial_1086_238)" fill-opacity="0.8"/>
<path d="M181.787 150.905C181.787 179.607 158.486 202.876 129.744 202.876C101.001 202.876 77.7005 179.607 77.7005 150.905C77.7005 122.202 101.001 98.9334 129.744 98.9334C158.486 98.9334 181.787 122.202 181.787 150.905Z" fill="url(#paint8_linear_1086_238)" fill-opacity="0.3"/>
<path d="M181.787 150.905C181.787 179.607 158.486 202.876 129.744 202.876C101.001 202.876 77.7005 179.607 77.7005 150.905C77.7005 122.202 101.001 98.9334 129.744 98.9334C158.486 98.9334 181.787 122.202 181.787 150.905Z" fill="#E2E2E2" fill-opacity="0.1"/>
<path d="M233.83 138.278C233.83 166.981 210.53 190.25 181.787 190.25C153.044 190.25 129.744 166.981 129.744 138.278C129.744 109.576 153.044 86.3073 181.787 86.3073C210.53 86.3073 233.83 109.576 233.83 138.278Z" fill="#D7C374"/>
<path d="M233.83 138.278C233.83 166.981 210.53 190.25 181.787 190.25C153.044 190.25 129.744 166.981 129.744 138.278C129.744 109.576 153.044 86.3073 181.787 86.3073C210.53 86.3073 233.83 109.576 233.83 138.278Z" fill="url(#paint9_radial_1086_238)" fill-opacity="0.8"/>
<path d="M233.83 138.278C233.83 166.981 210.53 190.25 181.787 190.25C153.044 190.25 129.744 166.981 129.744 138.278C129.744 109.576 153.044 86.3073 181.787 86.3073C210.53 86.3073 233.83 109.576 233.83 138.278Z" fill="url(#paint10_radial_1086_238)" fill-opacity="0.8"/>
<path d="M233.83 138.278C233.83 166.981 210.53 190.25 181.787 190.25C153.044 190.25 129.744 166.981 129.744 138.278C129.744 109.576 153.044 86.3073 181.787 86.3073C210.53 86.3073 233.83 109.576 233.83 138.278Z" fill="url(#paint11_linear_1086_238)" fill-opacity="0.3"/>
<path d="M233.83 138.278C233.83 166.981 210.53 190.25 181.787 190.25C153.044 190.25 129.744 166.981 129.744 138.278C129.744 109.576 153.044 86.3073 181.787 86.3073C210.53 86.3073 233.83 109.576 233.83 138.278Z" fill="white" fill-opacity="0.2"/>
<defs>
<radialGradient id="paint0_radial_1086_238" cx="0" cy="0" r="1" gradientUnits="userSpaceOnUse" gradientTransform="translate(45.0853 101.776) rotate(4.60654) scale(158.029 222.746)">
<stop stop-color="white" stop-opacity="0"/>
<stop offset="0.521304" stop-color="#EEFF00"/>
<stop offset="1" stop-color="#EEFF00"/>
</radialGradient>
<radialGradient id="paint1_radial_1086_238" cx="0" cy="0" r="1" gradientUnits="userSpaceOnUse" gradientTransform="translate(74.933 153.697) rotate(-14.3037) scale(130.762 184.34)">
<stop stop-color="white" stop-opacity="0"/>
<stop offset="1" stop-color="#00C8FF"/>
</radialGradient>
<linearGradient id="paint2_linear_1086_238" x1="18.3186" y1="176.003" x2="252.724" y2="52.8568" gradientUnits="userSpaceOnUse">
<stop stop-color="white" stop-opacity="0"/>
<stop offset="1" stop-color="#E5B700"/>
</linearGradient>
<radialGradient id="paint3_radial_1086_238" cx="0" cy="0" r="1" gradientUnits="userSpaceOnUse" gradientTransform="translate(45.0853 101.776) rotate(4.60654) scale(158.029 222.746)">
<stop stop-color="white" stop-opacity="0"/>
<stop offset="0.521304" stop-color="#EEFF00"/>
<stop offset="1" stop-color="#EEFF00"/>
</radialGradient>
<radialGradient id="paint4_radial_1086_238" cx="0" cy="0" r="1" gradientUnits="userSpaceOnUse" gradientTransform="translate(74.933 153.697) rotate(-14.3037) scale(130.762 184.34)">
<stop stop-color="white" stop-opacity="0"/>
<stop offset="1" stop-color="#00C8FF"/>
</radialGradient>
<linearGradient id="paint5_linear_1086_238" x1="18.3186" y1="176.003" x2="252.724" y2="52.8568" gradientUnits="userSpaceOnUse">
<stop stop-color="white" stop-opacity="0"/>
<stop offset="1" stop-color="#E5B700"/>
</linearGradient>
<radialGradient id="paint6_radial_1086_238" cx="0" cy="0" r="1" gradientUnits="userSpaceOnUse" gradientTransform="translate(45.0853 101.776) rotate(4.60654) scale(158.029 222.746)">
<stop stop-color="white" stop-opacity="0"/>
<stop offset="0.521304" stop-color="#EEFF00"/>
<stop offset="1" stop-color="#EEFF00"/>
</radialGradient>
<radialGradient id="paint7_radial_1086_238" cx="0" cy="0" r="1" gradientUnits="userSpaceOnUse" gradientTransform="translate(74.933 153.697) rotate(-14.3037) scale(130.762 184.34)">
<stop stop-color="white" stop-opacity="0"/>
<stop offset="1" stop-color="#00C8FF"/>
</radialGradient>
<linearGradient id="paint8_linear_1086_238" x1="18.3186" y1="176.003" x2="252.724" y2="52.8568" gradientUnits="userSpaceOnUse">
<stop stop-color="white" stop-opacity="0"/>
<stop offset="1" stop-color="#E5B700"/>
</linearGradient>
<radialGradient id="paint9_radial_1086_238" cx="0" cy="0" r="1" gradientUnits="userSpaceOnUse" gradientTransform="translate(45.0853 101.776) rotate(4.60654) scale(158.029 222.746)">
<stop stop-color="white" stop-opacity="0"/>
<stop offset="0.521304" stop-color="#EEFF00"/>
<stop offset="1" stop-color="#EEFF00"/>
</radialGradient>
<radialGradient id="paint10_radial_1086_238" cx="0" cy="0" r="1" gradientUnits="userSpaceOnUse" gradientTransform="translate(74.933 153.697) rotate(-14.3037) scale(130.762 184.34)">
<stop stop-color="white" stop-opacity="0"/>
<stop offset="1" stop-color="#00C8FF"/>
</radialGradient>
<linearGradient id="paint11_linear_1086_238" x1="18.3186" y1="176.003" x2="252.724" y2="52.8568" gradientUnits="userSpaceOnUse">
<stop stop-color="white" stop-opacity="0"/>
<stop offset="1" stop-color="#E5B700"/>
</linearGradient>
</defs>
</svg>
