<svg width="550" height="459" viewBox="0 0 550 459" fill="none" xmlns="http://www.w3.org/2000/svg">
<path d="M65 458.157L83.0581 405.843H97.8199L115.878 458.157H103.768L100.185 447.484H80.6217L77.0387 458.157H65ZM83.703 438.004H97.1033L88.9341 413.286H91.9438L83.703 438.004Z" fill="#373737"/>
<path d="M121.426 458.157V405.843H143.999C147.677 405.843 150.83 406.451 153.458 407.668C156.085 408.886 158.091 410.641 159.477 412.935C160.862 415.182 161.555 417.921 161.555 421.151C161.555 423.445 160.91 425.645 159.62 427.752C158.33 429.811 156.204 431.544 153.243 432.948V427.611C156.061 428.688 158.235 429.975 159.764 431.473C161.292 432.971 162.343 434.61 162.917 436.389C163.49 438.121 163.776 439.947 163.776 441.866C163.776 447.016 162.033 451.018 158.545 453.874C155.058 456.73 150.209 458.157 143.999 458.157H121.426ZM132.533 448.678H145.288C147.534 448.678 149.325 448.046 150.663 446.782C152 445.518 152.669 443.879 152.669 441.866C152.669 439.806 152 438.144 150.663 436.88C149.325 435.616 147.534 434.984 145.288 434.984H132.533V448.678ZM132.533 425.505H144.787C146.507 425.505 147.868 425.036 148.871 424.1C149.922 423.117 150.448 421.83 150.448 420.238C150.448 418.646 149.922 417.382 148.871 416.446C147.868 415.463 146.507 414.971 144.787 414.971H132.533V425.505Z" fill="#373737"/>
<path d="M190.321 459C186.977 459 183.824 458.415 180.862 457.244C177.948 456.027 175.416 454.319 173.266 452.118C171.164 449.918 169.588 447.32 168.537 444.324L177.637 440.321C178.975 443.177 180.814 445.424 183.155 447.062C185.544 448.701 188.171 449.52 191.038 449.52C192.566 449.52 193.88 449.286 194.979 448.818C196.078 448.35 196.938 447.718 197.559 446.922C198.18 446.079 198.49 445.096 198.49 443.973C198.49 442.756 198.108 441.726 197.344 440.883C196.579 439.993 195.385 439.291 193.761 438.776L183.299 435.406C179.047 434.048 175.846 432.129 173.696 429.648C171.546 427.12 170.472 424.1 170.472 420.589C170.472 417.499 171.236 414.784 172.765 412.443C174.341 410.103 176.515 408.277 179.286 406.966C182.104 405.655 185.329 405 188.96 405C192.16 405 195.122 405.538 197.845 406.615C200.568 407.692 202.909 409.213 204.868 411.179C206.874 413.146 208.379 415.51 209.382 418.272L200.353 422.274C199.35 419.84 197.845 417.944 195.839 416.586C193.832 415.182 191.539 414.48 188.96 414.48C187.479 414.48 186.165 414.714 185.018 415.182C183.872 415.65 182.988 416.329 182.367 417.218C181.746 418.061 181.435 419.044 181.435 420.168C181.435 421.385 181.841 422.462 182.654 423.398C183.466 424.287 184.684 424.99 186.308 425.505L196.555 428.735C200.855 430.092 204.056 431.988 206.158 434.423C208.308 436.857 209.382 439.83 209.382 443.341C209.382 446.384 208.57 449.099 206.946 451.486C205.322 453.827 203.076 455.676 200.21 457.034C197.391 458.345 194.095 459 190.321 459Z" fill="#4EB477"/>
<path d="M244.027 459C240.014 459 236.288 458.321 232.848 456.964C229.408 455.606 226.399 453.71 223.819 451.276C221.287 448.795 219.304 445.915 217.871 442.638C216.438 439.362 215.721 435.804 215.721 431.965C215.721 428.126 216.414 424.568 217.8 421.291C219.233 418.014 221.215 415.159 223.747 412.724C226.327 410.29 229.337 408.394 232.776 407.036C236.216 405.679 239.966 405 244.027 405C248.087 405 251.838 405.679 255.277 407.036C258.717 408.394 261.703 410.29 264.235 412.724C266.814 415.159 268.797 418.014 270.182 421.291C271.616 424.568 272.332 428.126 272.332 431.965C272.332 435.804 271.616 439.362 270.182 442.638C268.749 445.915 266.743 448.795 264.163 451.276C261.631 453.71 258.645 455.606 255.206 456.964C251.766 458.321 248.04 459 244.027 459ZM244.027 449.169C246.463 449.169 248.708 448.748 250.763 447.905C252.865 447.062 254.704 445.892 256.28 444.394C257.857 442.849 259.075 441.023 259.935 438.917C260.795 436.81 261.225 434.493 261.225 431.965C261.225 429.437 260.795 427.143 259.935 425.083C259.075 422.977 257.857 421.151 256.28 419.606C254.704 418.061 252.865 416.891 250.763 416.095C248.708 415.252 246.463 414.831 244.027 414.831C241.59 414.831 239.321 415.252 237.219 416.095C235.165 416.891 233.35 418.061 231.773 419.606C230.197 421.151 228.978 422.977 228.118 425.083C227.259 427.143 226.829 429.437 226.829 431.965C226.829 434.493 227.259 436.81 228.118 438.917C228.978 441.023 230.197 442.849 231.773 444.394C233.35 445.892 235.165 447.062 237.219 447.905C239.321 448.748 241.59 449.169 244.027 449.169Z" fill="#4EB477"/>
<path d="M280.21 458.157V405.843H291.317V448.678H313.889V458.157H280.21Z" fill="#4EB477"/>
<path d="M339.21 459C335.006 459 331.255 458.134 327.959 456.402C324.663 454.67 322.059 452.306 320.148 449.309C318.285 446.267 317.354 442.826 317.354 438.987V405.843H328.461V438.285C328.461 440.345 328.915 442.217 329.822 443.902C330.778 445.541 332.068 446.828 333.692 447.765C335.316 448.701 337.155 449.169 339.21 449.169C341.312 449.169 343.151 448.701 344.727 447.765C346.352 446.828 347.618 445.541 348.525 443.902C349.481 442.217 349.958 440.345 349.958 438.285V405.843H361.066V438.987C361.066 442.826 360.11 446.267 358.199 449.309C356.336 452.306 353.756 454.67 350.46 456.402C347.164 458.134 343.414 459 339.21 459Z" fill="#4EB477"/>
<path d="M379.456 458.157V415.322H365.912V405.843H403.891V415.322H390.563V458.157H379.456Z" fill="#4EB477"/>
<path d="M409.392 458.157V405.843H420.499V458.157H409.392Z" fill="#4EB477"/>
<path d="M456.695 459C452.682 459 448.956 458.321 445.516 456.964C442.076 455.606 439.067 453.71 436.487 451.276C433.955 448.795 431.972 445.915 430.539 442.638C429.106 439.362 428.389 435.804 428.389 431.965C428.389 428.126 429.082 424.568 430.467 421.291C431.901 418.014 433.883 415.159 436.415 412.724C438.995 410.29 442.005 408.394 445.444 407.036C448.884 405.679 452.634 405 456.695 405C460.755 405 464.506 405.679 467.945 407.036C471.385 408.394 474.371 410.29 476.903 412.724C479.482 415.159 481.465 418.014 482.85 421.291C484.283 424.568 485 428.126 485 431.965C485 435.804 484.283 439.362 482.85 442.638C481.417 445.915 479.411 448.795 476.831 451.276C474.299 453.71 471.313 455.606 467.874 456.964C464.434 458.321 460.708 459 456.695 459ZM456.695 449.169C459.131 449.169 461.376 448.748 463.431 447.905C465.533 447.062 467.372 445.892 468.948 444.394C470.525 442.849 471.743 441.023 472.603 438.917C473.463 436.81 473.893 434.493 473.893 431.965C473.893 429.437 473.463 427.143 472.603 425.083C471.743 422.977 470.525 421.151 468.948 419.606C467.372 418.061 465.533 416.891 463.431 416.095C461.376 415.252 459.131 414.831 456.695 414.831C454.258 414.831 451.989 415.252 449.887 416.095C447.833 416.891 446.017 418.061 444.441 419.606C442.864 421.151 441.646 422.977 440.786 425.083C439.926 427.143 439.496 429.437 439.496 431.965C439.496 434.493 439.926 436.81 440.786 438.917C441.646 441.023 442.864 442.849 444.441 444.394C446.017 445.892 447.833 447.062 449.887 447.905C451.989 448.748 454.258 449.169 456.695 449.169Z" fill="#4EB477"/>
<path d="M270.262 221.503C270.262 296.134 209.761 356.634 135.131 356.634C60.5001 356.634 0 296.134 0 221.503C0 146.872 60.5001 86.3721 135.131 86.3721C209.761 86.3721 270.262 146.872 270.262 221.503Z" fill="#D7C374"/>
<path d="M270.262 221.503C270.262 296.134 209.761 356.634 135.131 356.634C60.5001 356.634 0 296.134 0 221.503C0 146.872 60.5001 86.3721 135.131 86.3721C209.761 86.3721 270.262 146.872 270.262 221.503Z" fill="url(#paint0_radial_1106_228)" fill-opacity="0.8"/>
<path d="M270.262 221.503C270.262 296.134 209.761 356.634 135.131 356.634C60.5001 356.634 0 296.134 0 221.503C0 146.872 60.5001 86.3721 135.131 86.3721C209.761 86.3721 270.262 146.872 270.262 221.503Z" fill="url(#paint1_radial_1106_228)" fill-opacity="0.8"/>
<path d="M270.262 221.503C270.262 296.134 209.761 356.634 135.131 356.634C60.5001 356.634 0 296.134 0 221.503C0 146.872 60.5001 86.3721 135.131 86.3721C209.761 86.3721 270.262 146.872 270.262 221.503Z" fill="url(#paint2_linear_1106_228)" fill-opacity="0.3"/>
<path d="M270.262 221.503C270.262 296.134 209.761 356.634 135.131 356.634C60.5001 356.634 0 296.134 0 221.503C0 146.872 60.5001 86.3721 135.131 86.3721C209.761 86.3721 270.262 146.872 270.262 221.503Z" fill="black" fill-opacity="0.1"/>
<path d="M429.772 135.131C429.772 209.761 369.272 270.262 294.641 270.262C220.01 270.262 159.51 209.761 159.51 135.131C159.51 60.5001 220.01 0 294.641 0C369.272 0 429.772 60.5001 429.772 135.131Z" fill="#D7C374"/>
<path d="M429.772 135.131C429.772 209.761 369.272 270.262 294.641 270.262C220.01 270.262 159.51 209.761 159.51 135.131C159.51 60.5001 220.01 0 294.641 0C369.272 0 429.772 60.5001 429.772 135.131Z" fill="url(#paint3_radial_1106_228)" fill-opacity="0.8"/>
<path d="M429.772 135.131C429.772 209.761 369.272 270.262 294.641 270.262C220.01 270.262 159.51 209.761 159.51 135.131C159.51 60.5001 220.01 0 294.641 0C369.272 0 429.772 60.5001 429.772 135.131Z" fill="url(#paint4_radial_1106_228)" fill-opacity="0.8"/>
<path d="M429.772 135.131C429.772 209.761 369.272 270.262 294.641 270.262C220.01 270.262 159.51 209.761 159.51 135.131C159.51 60.5001 220.01 0 294.641 0C369.272 0 429.772 60.5001 429.772 135.131Z" fill="url(#paint5_linear_1106_228)" fill-opacity="0.3"/>
<path d="M429.772 135.131C429.772 209.761 369.272 270.262 294.641 270.262C220.01 270.262 159.51 209.761 159.51 135.131C159.51 60.5001 220.01 0 294.641 0C369.272 0 429.772 60.5001 429.772 135.131Z" fill="black" fill-opacity="0.03"/>
<path d="M414.448 254.24C414.448 328.871 353.947 389.371 279.317 389.371C204.686 389.371 144.186 328.871 144.186 254.24C144.186 179.61 204.686 119.11 279.317 119.11C353.947 119.11 414.448 179.61 414.448 254.24Z" fill="#D7C374"/>
<path d="M414.448 254.24C414.448 328.871 353.947 389.371 279.317 389.371C204.686 389.371 144.186 328.871 144.186 254.24C144.186 179.61 204.686 119.11 279.317 119.11C353.947 119.11 414.448 179.61 414.448 254.24Z" fill="url(#paint6_radial_1106_228)" fill-opacity="0.8"/>
<path d="M414.448 254.24C414.448 328.871 353.947 389.371 279.317 389.371C204.686 389.371 144.186 328.871 144.186 254.24C144.186 179.61 204.686 119.11 279.317 119.11C353.947 119.11 414.448 179.61 414.448 254.24Z" fill="url(#paint7_radial_1106_228)" fill-opacity="0.8"/>
<path d="M414.448 254.24C414.448 328.871 353.947 389.371 279.317 389.371C204.686 389.371 144.186 328.871 144.186 254.24C144.186 179.61 204.686 119.11 279.317 119.11C353.947 119.11 414.448 179.61 414.448 254.24Z" fill="url(#paint8_linear_1106_228)" fill-opacity="0.3"/>
<path d="M414.448 254.24C414.448 328.871 353.947 389.371 279.317 389.371C204.686 389.371 144.186 328.871 144.186 254.24C144.186 179.61 204.686 119.11 279.317 119.11C353.947 119.11 414.448 179.61 414.448 254.24Z" fill="#E2E2E2" fill-opacity="0.1"/>
<path d="M549.578 221.411C549.578 296.042 489.078 356.542 414.448 356.542C339.817 356.542 279.317 296.042 279.317 221.411C279.317 146.78 339.817 86.2803 414.448 86.2803C489.078 86.2803 549.578 146.78 549.578 221.411Z" fill="#D7C374"/>
<path d="M549.578 221.411C549.578 296.042 489.078 356.542 414.448 356.542C339.817 356.542 279.317 296.042 279.317 221.411C279.317 146.78 339.817 86.2803 414.448 86.2803C489.078 86.2803 549.578 146.78 549.578 221.411Z" fill="url(#paint9_radial_1106_228)" fill-opacity="0.8"/>
<path d="M549.578 221.411C549.578 296.042 489.078 356.542 414.448 356.542C339.817 356.542 279.317 296.042 279.317 221.411C279.317 146.78 339.817 86.2803 414.448 86.2803C489.078 86.2803 549.578 146.78 549.578 221.411Z" fill="url(#paint10_radial_1106_228)" fill-opacity="0.8"/>
<path d="M549.578 221.411C549.578 296.042 489.078 356.542 414.448 356.542C339.817 356.542 279.317 296.042 279.317 221.411C279.317 146.78 339.817 86.2803 414.448 86.2803C489.078 86.2803 549.578 146.78 549.578 221.411Z" fill="url(#paint11_linear_1106_228)" fill-opacity="0.3"/>
<path d="M549.578 221.411C549.578 296.042 489.078 356.542 414.448 356.542C339.817 356.542 279.317 296.042 279.317 221.411C279.317 146.78 339.817 86.2803 414.448 86.2803C489.078 86.2803 549.578 146.78 549.578 221.411Z" fill="white" fill-opacity="0.2"/>
<defs>
<radialGradient id="paint0_radial_1106_228" cx="0" cy="0" r="1" gradientUnits="userSpaceOnUse" gradientTransform="translate(59.5 126.5) rotate(4.61289) scale(410.329 579.16)">
<stop stop-color="white" stop-opacity="0"/>
<stop offset="0.521304" stop-color="#EEFF00"/>
<stop offset="1" stop-color="#EEFF00"/>
</radialGradient>
<radialGradient id="paint1_radial_1106_228" cx="0" cy="0" r="1" gradientUnits="userSpaceOnUse" gradientTransform="translate(137 261.5) rotate(-14.3227) scale(339.554 479.264)">
<stop stop-color="white" stop-opacity="0"/>
<stop offset="1" stop-color="#00C8FF"/>
</radialGradient>
<linearGradient id="paint2_linear_1106_228" x1="-10" y1="319.5" x2="599" y2="-0.000238878" gradientUnits="userSpaceOnUse">
<stop stop-color="white" stop-opacity="0"/>
<stop offset="1" stop-color="#E5B700"/>
</linearGradient>
<radialGradient id="paint3_radial_1106_228" cx="0" cy="0" r="1" gradientUnits="userSpaceOnUse" gradientTransform="translate(59.5 126.5) rotate(4.61289) scale(410.329 579.16)">
<stop stop-color="white" stop-opacity="0"/>
<stop offset="0.521304" stop-color="#EEFF00"/>
<stop offset="1" stop-color="#EEFF00"/>
</radialGradient>
<radialGradient id="paint4_radial_1106_228" cx="0" cy="0" r="1" gradientUnits="userSpaceOnUse" gradientTransform="translate(137 261.5) rotate(-14.3227) scale(339.554 479.264)">
<stop stop-color="white" stop-opacity="0"/>
<stop offset="1" stop-color="#00C8FF"/>
</radialGradient>
<linearGradient id="paint5_linear_1106_228" x1="-10" y1="319.5" x2="599" y2="-0.000238878" gradientUnits="userSpaceOnUse">
<stop stop-color="white" stop-opacity="0"/>
<stop offset="1" stop-color="#E5B700"/>
</linearGradient>
<radialGradient id="paint6_radial_1106_228" cx="0" cy="0" r="1" gradientUnits="userSpaceOnUse" gradientTransform="translate(59.5 126.5) rotate(4.61289) scale(410.329 579.16)">
<stop stop-color="white" stop-opacity="0"/>
<stop offset="0.521304" stop-color="#EEFF00"/>
<stop offset="1" stop-color="#EEFF00"/>
</radialGradient>
<radialGradient id="paint7_radial_1106_228" cx="0" cy="0" r="1" gradientUnits="userSpaceOnUse" gradientTransform="translate(137 261.5) rotate(-14.3227) scale(339.554 479.264)">
<stop stop-color="white" stop-opacity="0"/>
<stop offset="1" stop-color="#00C8FF"/>
</radialGradient>
<linearGradient id="paint8_linear_1106_228" x1="-10" y1="319.5" x2="599" y2="-0.000238878" gradientUnits="userSpaceOnUse">
<stop stop-color="white" stop-opacity="0"/>
<stop offset="1" stop-color="#E5B700"/>
</linearGradient>
<radialGradient id="paint9_radial_1106_228" cx="0" cy="0" r="1" gradientUnits="userSpaceOnUse" gradientTransform="translate(59.5 126.5) rotate(4.61289) scale(410.329 579.16)">
<stop stop-color="white" stop-opacity="0"/>
<stop offset="0.521304" stop-color="#EEFF00"/>
<stop offset="1" stop-color="#EEFF00"/>
</radialGradient>
<radialGradient id="paint10_radial_1106_228" cx="0" cy="0" r="1" gradientUnits="userSpaceOnUse" gradientTransform="translate(137 261.5) rotate(-14.3227) scale(339.554 479.264)">
<stop stop-color="white" stop-opacity="0"/>
<stop offset="1" stop-color="#00C8FF"/>
</radialGradient>
<linearGradient id="paint11_linear_1106_228" x1="-10" y1="319.5" x2="599" y2="-0.000238878" gradientUnits="userSpaceOnUse">
<stop stop-color="white" stop-opacity="0"/>
<stop offset="1" stop-color="#E5B700"/>
</linearGradient>
</defs>
</svg>
