<svg width="212" height="150" viewBox="0 0 212 150" fill="none" xmlns="http://www.w3.org/2000/svg">
<path d="M104.086 85.1897C104.086 113.893 80.7858 137.161 52.0432 137.161C23.3005 137.161 0 113.893 0 85.1897C0 56.4869 23.3005 33.2186 52.0432 33.2186C80.7858 33.2186 104.086 56.4869 104.086 85.1897Z" fill="#D7C374"/>
<path d="M104.086 85.1897C104.086 113.893 80.7858 137.161 52.0432 137.161C23.3005 137.161 0 113.893 0 85.1897C0 56.4869 23.3005 33.2186 52.0432 33.2186C80.7858 33.2186 104.086 56.4869 104.086 85.1897Z" fill="url(#paint0_radial_1086_233)" fill-opacity="0.8"/>
<path d="M104.086 85.1897C104.086 113.893 80.7858 137.161 52.0432 137.161C23.3005 137.161 0 113.893 0 85.1897C0 56.4869 23.3005 33.2186 52.0432 33.2186C80.7858 33.2186 104.086 56.4869 104.086 85.1897Z" fill="url(#paint1_radial_1086_233)" fill-opacity="0.8"/>
<path d="M104.086 85.1897C104.086 113.893 80.7858 137.161 52.0432 137.161C23.3005 137.161 0 113.893 0 85.1897C0 56.4869 23.3005 33.2186 52.0432 33.2186C80.7858 33.2186 104.086 56.4869 104.086 85.1897Z" fill="url(#paint2_linear_1086_233)" fill-opacity="0.3"/>
<path d="M104.086 85.1897C104.086 113.893 80.7858 137.161 52.0432 137.161C23.3005 137.161 0 113.893 0 85.1897C0 56.4869 23.3005 33.2186 52.0432 33.2186C80.7858 33.2186 104.086 56.4869 104.086 85.1897Z" fill="black" fill-opacity="0.1"/>
<path d="M165.519 51.9711C165.519 80.674 142.218 103.942 113.476 103.942C84.7329 103.942 61.4324 80.674 61.4324 51.9711C61.4324 23.2683 84.7329 0 113.476 0C142.218 0 165.519 23.2683 165.519 51.9711Z" fill="#D7C374"/>
<path d="M165.519 51.9711C165.519 80.674 142.218 103.942 113.476 103.942C84.7329 103.942 61.4324 80.674 61.4324 51.9711C61.4324 23.2683 84.7329 0 113.476 0C142.218 0 165.519 23.2683 165.519 51.9711Z" fill="url(#paint3_radial_1086_233)" fill-opacity="0.8"/>
<path d="M165.519 51.9711C165.519 80.674 142.218 103.942 113.476 103.942C84.7329 103.942 61.4324 80.674 61.4324 51.9711C61.4324 23.2683 84.7329 0 113.476 0C142.218 0 165.519 23.2683 165.519 51.9711Z" fill="url(#paint4_radial_1086_233)" fill-opacity="0.8"/>
<path d="M165.519 51.9711C165.519 80.674 142.218 103.942 113.476 103.942C84.7329 103.942 61.4324 80.674 61.4324 51.9711C61.4324 23.2683 84.7329 0 113.476 0C142.218 0 165.519 23.2683 165.519 51.9711Z" fill="url(#paint5_linear_1086_233)" fill-opacity="0.3"/>
<path d="M165.519 51.9711C165.519 80.674 142.218 103.942 113.476 103.942C84.7329 103.942 61.4324 80.674 61.4324 51.9711C61.4324 23.2683 84.7329 0 113.476 0C142.218 0 165.519 23.2683 165.519 51.9711Z" fill="black" fill-opacity="0.03"/>
<path d="M159.617 97.7805C159.617 126.483 136.316 149.752 107.574 149.752C78.8311 149.752 55.5306 126.483 55.5306 97.7805C55.5306 69.0776 78.8311 45.8094 107.574 45.8094C136.316 45.8094 159.617 69.0776 159.617 97.7805Z" fill="#D7C374"/>
<path d="M159.617 97.7805C159.617 126.483 136.316 149.752 107.574 149.752C78.8311 149.752 55.5306 126.483 55.5306 97.7805C55.5306 69.0776 78.8311 45.8094 107.574 45.8094C136.316 45.8094 159.617 69.0776 159.617 97.7805Z" fill="url(#paint6_radial_1086_233)" fill-opacity="0.8"/>
<path d="M159.617 97.7805C159.617 126.483 136.316 149.752 107.574 149.752C78.8311 149.752 55.5306 126.483 55.5306 97.7805C55.5306 69.0776 78.8311 45.8094 107.574 45.8094C136.316 45.8094 159.617 69.0776 159.617 97.7805Z" fill="url(#paint7_radial_1086_233)" fill-opacity="0.8"/>
<path d="M159.617 97.7805C159.617 126.483 136.316 149.752 107.574 149.752C78.8311 149.752 55.5306 126.483 55.5306 97.7805C55.5306 69.0776 78.8311 45.8094 107.574 45.8094C136.316 45.8094 159.617 69.0776 159.617 97.7805Z" fill="url(#paint8_linear_1086_233)" fill-opacity="0.3"/>
<path d="M159.617 97.7805C159.617 126.483 136.316 149.752 107.574 149.752C78.8311 149.752 55.5306 126.483 55.5306 97.7805C55.5306 69.0776 78.8311 45.8094 107.574 45.8094C136.316 45.8094 159.617 69.0776 159.617 97.7805Z" fill="#E2E2E2" fill-opacity="0.1"/>
<path d="M211.66 85.1544C211.66 113.857 188.36 137.126 159.617 137.126C130.874 137.126 107.574 113.857 107.574 85.1544C107.574 56.4516 130.874 33.1833 159.617 33.1833C188.36 33.1833 211.66 56.4516 211.66 85.1544Z" fill="#D7C374"/>
<path d="M211.66 85.1544C211.66 113.857 188.36 137.126 159.617 137.126C130.874 137.126 107.574 113.857 107.574 85.1544C107.574 56.4516 130.874 33.1833 159.617 33.1833C188.36 33.1833 211.66 56.4516 211.66 85.1544Z" fill="url(#paint9_radial_1086_233)" fill-opacity="0.8"/>
<path d="M211.66 85.1544C211.66 113.857 188.36 137.126 159.617 137.126C130.874 137.126 107.574 113.857 107.574 85.1544C107.574 56.4516 130.874 33.1833 159.617 33.1833C188.36 33.1833 211.66 56.4516 211.66 85.1544Z" fill="url(#paint10_radial_1086_233)" fill-opacity="0.8"/>
<path d="M211.66 85.1544C211.66 113.857 188.36 137.126 159.617 137.126C130.874 137.126 107.574 113.857 107.574 85.1544C107.574 56.4516 130.874 33.1833 159.617 33.1833C188.36 33.1833 211.66 56.4516 211.66 85.1544Z" fill="url(#paint11_linear_1086_233)" fill-opacity="0.3"/>
<path d="M211.66 85.1544C211.66 113.857 188.36 137.126 159.617 137.126C130.874 137.126 107.574 113.857 107.574 85.1544C107.574 56.4516 130.874 33.1833 159.617 33.1833C188.36 33.1833 211.66 56.4516 211.66 85.1544Z" fill="white" fill-opacity="0.2"/>
<defs>
<radialGradient id="paint0_radial_1086_233" cx="0" cy="0" r="1" gradientUnits="userSpaceOnUse" gradientTransform="translate(22.9153 48.6517) rotate(4.60654) scale(158.029 222.746)">
<stop stop-color="white" stop-opacity="0"/>
<stop offset="0.521304" stop-color="#EEFF00"/>
<stop offset="1" stop-color="#EEFF00"/>
</radialGradient>
<radialGradient id="paint1_radial_1086_233" cx="0" cy="0" r="1" gradientUnits="userSpaceOnUse" gradientTransform="translate(52.7631 100.573) rotate(-14.3037) scale(130.762 184.34)">
<stop stop-color="white" stop-opacity="0"/>
<stop offset="1" stop-color="#00C8FF"/>
</radialGradient>
<linearGradient id="paint2_linear_1086_233" x1="-3.85132" y1="122.879" x2="230.554" y2="-0.267241" gradientUnits="userSpaceOnUse">
<stop stop-color="white" stop-opacity="0"/>
<stop offset="1" stop-color="#E5B700"/>
</linearGradient>
<radialGradient id="paint3_radial_1086_233" cx="0" cy="0" r="1" gradientUnits="userSpaceOnUse" gradientTransform="translate(22.9153 48.6517) rotate(4.60654) scale(158.029 222.746)">
<stop stop-color="white" stop-opacity="0"/>
<stop offset="0.521304" stop-color="#EEFF00"/>
<stop offset="1" stop-color="#EEFF00"/>
</radialGradient>
<radialGradient id="paint4_radial_1086_233" cx="0" cy="0" r="1" gradientUnits="userSpaceOnUse" gradientTransform="translate(52.7631 100.573) rotate(-14.3037) scale(130.762 184.34)">
<stop stop-color="white" stop-opacity="0"/>
<stop offset="1" stop-color="#00C8FF"/>
</radialGradient>
<linearGradient id="paint5_linear_1086_233" x1="-3.85132" y1="122.879" x2="230.554" y2="-0.267241" gradientUnits="userSpaceOnUse">
<stop stop-color="white" stop-opacity="0"/>
<stop offset="1" stop-color="#E5B700"/>
</linearGradient>
<radialGradient id="paint6_radial_1086_233" cx="0" cy="0" r="1" gradientUnits="userSpaceOnUse" gradientTransform="translate(22.9153 48.6517) rotate(4.60654) scale(158.029 222.746)">
<stop stop-color="white" stop-opacity="0"/>
<stop offset="0.521304" stop-color="#EEFF00"/>
<stop offset="1" stop-color="#EEFF00"/>
</radialGradient>
<radialGradient id="paint7_radial_1086_233" cx="0" cy="0" r="1" gradientUnits="userSpaceOnUse" gradientTransform="translate(52.7631 100.573) rotate(-14.3037) scale(130.762 184.34)">
<stop stop-color="white" stop-opacity="0"/>
<stop offset="1" stop-color="#00C8FF"/>
</radialGradient>
<linearGradient id="paint8_linear_1086_233" x1="-3.85132" y1="122.879" x2="230.554" y2="-0.267241" gradientUnits="userSpaceOnUse">
<stop stop-color="white" stop-opacity="0"/>
<stop offset="1" stop-color="#E5B700"/>
</linearGradient>
<radialGradient id="paint9_radial_1086_233" cx="0" cy="0" r="1" gradientUnits="userSpaceOnUse" gradientTransform="translate(22.9153 48.6517) rotate(4.60654) scale(158.029 222.746)">
<stop stop-color="white" stop-opacity="0"/>
<stop offset="0.521304" stop-color="#EEFF00"/>
<stop offset="1" stop-color="#EEFF00"/>
</radialGradient>
<radialGradient id="paint10_radial_1086_233" cx="0" cy="0" r="1" gradientUnits="userSpaceOnUse" gradientTransform="translate(52.7631 100.573) rotate(-14.3037) scale(130.762 184.34)">
<stop stop-color="white" stop-opacity="0"/>
<stop offset="1" stop-color="#00C8FF"/>
</radialGradient>
<linearGradient id="paint11_linear_1086_233" x1="-3.85132" y1="122.879" x2="230.554" y2="-0.267241" gradientUnits="userSpaceOnUse">
<stop stop-color="white" stop-opacity="0"/>
<stop offset="1" stop-color="#E5B700"/>
</linearGradient>
</defs>
</svg>
